<?xml version="1.0" encoding="UTF-8"?>
<!DOCTYPE svg PUBLIC "-//W3C//DTD SVG 1.1//EN" "http://www.w3.org/Graphics/SVG/1.1/DTD/svg11.dtd">
<svg xmlns="http://www.w3.org/2000/svg" version="1.1" width="512px" height="512px" style="shape-rendering:geometricPrecision; text-rendering:geometricPrecision; image-rendering:optimizeQuality; fill-rule:evenodd; clip-rule:evenodd" xmlns:xlink="http://www.w3.org/1999/xlink">
<g><path style="opacity:0.988" fill="#2d3c6b" d="M 447.5,-0.5 C 450.5,-0.5 453.5,-0.5 456.5,-0.5C 459.733,2.30339 461.566,5.97006 462,10.5C 464.912,21.9815 467.745,33.4815 470.5,45C 469.858,49.6417 467.192,52.3084 462.5,53C 442.106,58.0151 421.773,63.1818 401.5,68.5C 396.107,69.1817 390.773,70.1817 385.5,71.5C 390.628,51.4494 395.961,31.4494 401.5,11.5C 417.017,7.78849 432.35,3.78849 447.5,-0.5 Z"/></g>
<g><path style="opacity:0.996" fill="#d9e0fc" d="M 401.5,11.5 C 395.961,31.4494 390.628,51.4494 385.5,71.5C 370.068,76.2748 354.402,80.2748 338.5,83.5C 344.039,63.5506 349.372,43.5506 354.5,23.5C 370.225,19.6521 385.892,15.6521 401.5,11.5 Z"/></g>
<g><path style="opacity:0.984" fill="#fe4155" d="M 325.5,30.5 C 320.206,33.0355 314.54,34.7022 308.5,35.5C 292.897,39.6509 277.23,43.6509 261.5,47.5C 246.162,51.5012 230.828,55.5012 215.5,59.5C 199.584,63.0616 183.918,67.0616 168.5,71.5C 147.28,76.388 126.28,81.7213 105.5,87.5C 97.7999,89.0083 90.1332,90.675 82.5,92.5C 130.28,45.4639 187.947,21.7973 255.5,21.5C 279.283,21.1358 302.616,24.1358 325.5,30.5 Z"/></g>
<g><path style="opacity:0.996" fill="#2f3d6b" d="M 354.5,23.5 C 349.372,43.5506 344.039,63.5506 338.5,83.5C 322.961,87.6352 307.294,91.6352 291.5,95.5C 297.167,75.5 302.833,55.5 308.5,35.5C 314.54,34.7022 320.206,33.0355 325.5,30.5C 335.284,28.6372 344.951,26.3039 354.5,23.5 Z"/></g>
<g><path style="opacity:1" fill="#d9dffb" d="M 308.5,35.5 C 302.833,55.5 297.167,75.5 291.5,95.5C 275.974,99.632 260.308,103.632 244.5,107.5C 250.474,87.6049 256.141,67.6049 261.5,47.5C 277.23,43.6509 292.897,39.6509 308.5,35.5 Z"/></g>
<g><path style="opacity:1" fill="#303c6b" d="M 261.5,47.5 C 256.141,67.6049 250.474,87.6049 244.5,107.5C 229.167,111.5 213.833,115.5 198.5,119.5C 203.765,99.3734 209.432,79.3734 215.5,59.5C 230.828,55.5012 246.162,51.5012 261.5,47.5 Z"/></g>
<g><path style="opacity:1" fill="#d9dffb" d="M 215.5,59.5 C 209.432,79.3734 203.765,99.3734 198.5,119.5C 182.695,123.035 167.028,127.035 151.5,131.5C 157.167,111.5 162.833,91.5 168.5,71.5C 183.918,67.0616 199.584,63.0616 215.5,59.5 Z"/></g>
<g><path style="opacity:0.998" fill="#fe4155" d="M 401.5,68.5 C 438.599,96.6094 465.932,132.276 483.5,175.5C 482.527,175.013 481.527,174.513 480.5,174C 454.169,173.5 427.835,173.333 401.5,173.5C 385.5,173.5 369.5,173.5 353.5,173.5C 337.5,173.5 321.5,173.5 305.5,173.5C 289.5,173.5 273.5,173.5 257.5,173.5C 241.5,173.5 225.5,173.5 209.5,173.5C 193.5,173.5 177.5,173.5 161.5,173.5C 153.833,173.5 146.167,173.5 138.5,173.5C 128.833,173.5 119.167,173.5 109.5,173.5C 102.5,166.833 95.5,160.167 88.5,153.5C 87.1667,151.833 85.8333,150.167 84.5,148.5C 96.4163,145.188 108.416,142.188 120.5,139.5C 130.769,136.682 141.103,134.016 151.5,131.5C 167.028,127.035 182.695,123.035 198.5,119.5C 213.833,115.5 229.167,111.5 244.5,107.5C 260.308,103.632 275.974,99.632 291.5,95.5C 307.294,91.6352 322.961,87.6352 338.5,83.5C 354.402,80.2748 370.068,76.2748 385.5,71.5C 390.773,70.1817 396.107,69.1817 401.5,68.5 Z"/></g>
<g><path style="opacity:1" fill="#2f3c6a" d="M 168.5,71.5 C 162.833,91.5 157.167,111.5 151.5,131.5C 141.103,134.016 130.769,136.682 120.5,139.5C 117.67,137.157 115.837,134.157 115,130.5C 111.265,115.933 108.098,101.599 105.5,87.5C 126.28,81.7213 147.28,76.388 168.5,71.5 Z"/></g>
<g><path style="opacity:1" fill="#222d5b" d="M 105.5,87.5 C 108.098,101.599 111.265,115.933 115,130.5C 115.837,134.157 117.67,137.157 120.5,139.5C 108.416,142.188 96.4163,145.188 84.5,148.5C 76.3684,140.869 68.3684,133.036 60.5,125C 56.6978,122.965 53.5311,123.798 51,127.5C 50.8087,137.577 50.3087,147.577 49.5,157.5C 44.0668,158.525 38.7335,159.858 33.5,161.5C 28.7799,162.755 25.2799,161.089 23,156.5C 20,144.5 17,132.5 14,120.5C 12.5568,115.788 13.7235,111.955 17.5,109C 39.2275,103.652 60.8941,98.1515 82.5,92.5C 90.1332,90.675 97.7999,89.0083 105.5,87.5 Z"/></g>
<g><path style="opacity:1" fill="#2d3c6b" d="M 84.5,148.5 C 85.8333,150.167 87.1667,151.833 88.5,153.5C 83.3813,155.285 80.048,158.618 78.5,163.5C 71.6632,163.018 67.3299,166.018 65.5,172.5C 64.8365,174.042 64.1698,175.709 63.5,177.5C 54.1879,180.454 50.1879,186.788 51.5,196.5C 50.508,189.018 50.1746,181.352 50.5,173.5C 50.8214,167.974 50.4881,162.64 49.5,157.5C 50.3087,147.577 50.8087,137.577 51,127.5C 53.5311,123.798 56.6978,122.965 60.5,125C 68.3684,133.036 76.3684,140.869 84.5,148.5 Z"/></g>
<g><path style="opacity:1" fill="#3c4f81" d="M 88.5,153.5 C 95.5,160.167 102.5,166.833 109.5,173.5C 114.797,179.298 120.297,184.965 126,190.5C 128.385,194.457 127.552,197.624 123.5,200C 100.5,200.667 77.5,200.667 54.5,200C 53.2899,198.961 52.2899,197.794 51.5,196.5C 50.1879,186.788 54.1879,180.454 63.5,177.5C 64.1698,175.709 64.8365,174.042 65.5,172.5C 65.9878,183.161 71.3211,186.994 81.5,184C 87.2904,178.553 87.9571,172.553 83.5,166C 81.6854,165.243 80.0188,164.41 78.5,163.5C 80.048,158.618 83.3813,155.285 88.5,153.5 Z"/></g>
<g><path style="opacity:0.979" fill="#f84055" d="M 49.5,157.5 C 50.4881,162.64 50.8214,167.974 50.5,173.5C 42.7777,173.233 35.111,173.566 27.5,174.5C 29.5,170.167 31.5,165.833 33.5,161.5C 38.7335,159.858 44.0668,158.525 49.5,157.5 Z"/></g>
<g><path style="opacity:1" fill="#d6defb" d="M 78.5,163.5 C 80.0188,164.41 81.6854,165.243 83.5,166C 87.9571,172.553 87.2904,178.553 81.5,184C 71.3211,186.994 65.9878,183.161 65.5,172.5C 67.3299,166.018 71.6632,163.018 78.5,163.5 Z"/></g>
<g><path style="opacity:1" fill="#2d3c6b" d="M 138.5,173.5 C 146.167,173.5 153.833,173.5 161.5,173.5C 171.929,191.262 181.929,209.262 191.5,227.5C 173.458,227.916 155.458,227.416 137.5,226C 136.667,225.167 135.833,224.333 135,223.5C 134.333,208.167 134.333,192.833 135,177.5C 135.69,175.65 136.856,174.316 138.5,173.5 Z"/></g>
<g><path style="opacity:1" fill="#d7dffc" d="M 161.5,173.5 C 177.5,173.5 193.5,173.5 209.5,173.5C 219.929,191.262 229.929,209.262 239.5,227.5C 223.5,227.5 207.5,227.5 191.5,227.5C 181.929,209.262 171.929,191.262 161.5,173.5 Z"/></g>
<g><path style="opacity:1" fill="#2d3c6b" d="M 209.5,173.5 C 225.5,173.5 241.5,173.5 257.5,173.5C 267.5,191.5 277.5,209.5 287.5,227.5C 271.5,227.5 255.5,227.5 239.5,227.5C 229.929,209.262 219.929,191.262 209.5,173.5 Z"/></g>
<g><path style="opacity:1" fill="#d7dffc" d="M 257.5,173.5 C 273.5,173.5 289.5,173.5 305.5,173.5C 315.929,191.262 325.929,209.262 335.5,227.5C 319.5,227.5 303.5,227.5 287.5,227.5C 277.5,209.5 267.5,191.5 257.5,173.5 Z"/></g>
<g><path style="opacity:1" fill="#2d3c6b" d="M 305.5,173.5 C 321.5,173.5 337.5,173.5 353.5,173.5C 363.929,191.262 373.929,209.262 383.5,227.5C 367.5,227.5 351.5,227.5 335.5,227.5C 325.929,209.262 315.929,191.262 305.5,173.5 Z"/></g>
<g><path style="opacity:1" fill="#d7dffc" d="M 353.5,173.5 C 369.5,173.5 385.5,173.5 401.5,173.5C 411.929,191.262 421.929,209.262 431.5,227.5C 415.5,227.5 399.5,227.5 383.5,227.5C 373.929,209.262 363.929,191.262 353.5,173.5 Z"/></g>
<g><path style="opacity:1" fill="#2e3c6b" d="M 401.5,173.5 C 427.835,173.333 454.169,173.5 480.5,174C 481.527,174.513 482.527,175.013 483.5,175.5C 485.074,177.102 485.741,179.102 485.5,181.5C 485.667,194.837 485.5,208.171 485,221.5C 482.96,225.94 479.46,227.94 474.5,227.5C 460.167,227.5 445.833,227.5 431.5,227.5C 421.929,209.262 411.929,191.262 401.5,173.5 Z"/></g>
<g><path style="opacity:0.977" fill="#fc4055" d="M 485.5,181.5 C 498.58,215.897 503.413,251.564 500,288.5C 497.274,319.077 489.107,348.077 475.5,375.5C 474.501,326.336 474.168,277.003 474.5,227.5C 479.46,227.94 482.96,225.94 485,221.5C 485.5,208.171 485.667,194.837 485.5,181.5 Z"/></g>
<g><path style="opacity:0.977" fill="#fe4155" d="M 24.5,184.5 C 24.3335,196.838 24.5001,209.171 25,221.5C 27.0794,225.957 30.5794,227.957 35.5,227.5C 35.5,276.5 35.5,325.5 35.5,374.5C 13.5347,330.376 5.70137,283.71 12,234.5C 14.0895,217.19 18.2562,200.523 24.5,184.5 Z"/></g>
<g><path style="opacity:1" fill="#0e1b41" d="M 35.5,227.5 C 71.1682,227.333 106.835,227.5 142.5,228C 128.361,236.546 123.028,249.046 126.5,265.5C 112.163,265.333 97.8295,265.5 83.5,266C 77.2581,270.219 76.9247,274.885 82.5,280C 93.8333,280.333 105.167,280.667 116.5,281C 117,281.5 117.5,282 118,282.5C 118.667,307.167 118.667,331.833 118,356.5C 117.5,357 117,357.5 116.5,358C 105.167,358.333 93.8333,358.667 82.5,359C 76.9377,364.163 77.271,368.829 83.5,373C 97.8295,373.5 112.163,373.667 126.5,373.5C 126.5,375.833 126.5,378.167 126.5,380.5C 122.298,380.183 118.298,380.517 114.5,381.5C 108.508,383.712 107.008,387.712 110,393.5C 111.264,395.607 113.097,396.607 115.5,396.5C 118.962,397.482 122.629,397.815 126.5,397.5C 126.5,399.833 126.5,402.167 126.5,404.5C 112.163,404.333 97.8295,404.5 83.5,405C 78.5656,407.665 77.3989,411.498 80,416.5C 81.2635,418.607 83.0968,419.607 85.5,419.5C 99.3234,420.496 113.323,420.829 127.5,420.5C 129.198,430.625 131.531,440.625 134.5,450.5C 120.833,450.5 107.167,450.5 93.5,450.5C 68.4837,429.486 49.1504,404.153 35.5,374.5C 35.5,325.5 35.5,276.5 35.5,227.5 Z"/></g>
<g><path style="opacity:0.999" fill="#222d5b" d="M 50.5,173.5 C 50.1746,181.352 50.508,189.018 51.5,196.5C 52.2899,197.794 53.2899,198.961 54.5,200C 77.5,200.667 100.5,200.667 123.5,200C 127.552,197.624 128.385,194.457 126,190.5C 120.297,184.965 114.797,179.298 109.5,173.5C 119.167,173.5 128.833,173.5 138.5,173.5C 136.856,174.316 135.69,175.65 135,177.5C 134.333,192.833 134.333,208.167 135,223.5C 135.833,224.333 136.667,225.167 137.5,226C 155.458,227.416 173.458,227.916 191.5,227.5C 207.5,227.5 223.5,227.5 239.5,227.5C 255.5,227.5 271.5,227.5 287.5,227.5C 303.5,227.5 319.5,227.5 335.5,227.5C 351.5,227.5 367.5,227.5 383.5,227.5C 399.5,227.5 415.5,227.5 431.5,227.5C 445.833,227.5 460.167,227.5 474.5,227.5C 474.168,277.003 474.501,326.336 475.5,375.5C 461.429,404.571 442.096,429.571 417.5,450.5C 323.167,450.5 228.833,450.5 134.5,450.5C 131.531,440.625 129.198,430.625 127.5,420.5C 113.323,420.829 99.3234,420.496 85.5,419.5C 199.167,419.667 312.834,419.5 426.5,419C 430.861,416.774 432.361,413.274 431,408.5C 429.786,406.951 428.286,405.785 426.5,405C 393.833,404.667 361.167,404.333 328.5,404C 327.167,394 327.167,384 328.5,374C 361.167,373.667 393.833,373.333 426.5,373C 432.653,368.748 432.986,364.081 427.5,359C 415.924,358.822 404.424,358.322 393,357.5C 392.333,332.167 392.333,306.833 393,281.5C 404.424,280.678 415.924,280.178 427.5,280C 433.173,274.75 432.84,270.084 426.5,266C 326.501,265.5 226.501,265.333 126.5,265.5C 123.028,249.046 128.361,236.546 142.5,228C 106.835,227.5 71.1682,227.333 35.5,227.5C 30.5794,227.957 27.0794,225.957 25,221.5C 24.5001,209.171 24.3335,196.838 24.5,184.5C 24.0255,180.584 25.0255,177.251 27.5,174.5C 35.111,173.566 42.7777,173.233 50.5,173.5 Z"/></g>
<g><path style="opacity:1" fill="#3b4f81" d="M 126.5,265.5 C 226.501,265.333 326.501,265.5 426.5,266C 432.84,270.084 433.173,274.75 427.5,280C 415.924,280.178 404.424,280.678 393,281.5C 392.333,306.833 392.333,332.167 393,357.5C 404.424,358.322 415.924,358.822 427.5,359C 432.986,364.081 432.653,368.748 426.5,373C 393.833,373.333 361.167,373.667 328.5,374C 327.167,384 327.167,394 328.5,404C 361.167,404.333 393.833,404.667 426.5,405C 428.286,405.785 429.786,406.951 431,408.5C 432.361,413.274 430.861,416.774 426.5,419C 312.834,419.5 199.167,419.667 85.5,419.5C 83.0968,419.607 81.2635,418.607 80,416.5C 77.3989,411.498 78.5656,407.665 83.5,405C 97.8295,404.5 112.163,404.333 126.5,404.5C 187.834,404.667 249.168,404.5 310.5,404C 311,403.5 311.5,403 312,402.5C 312.667,393.5 312.667,384.5 312,375.5C 311.5,375 311,374.5 310.5,374C 249.168,373.5 187.834,373.333 126.5,373.5C 112.163,373.667 97.8295,373.5 83.5,373C 77.271,368.829 76.9377,364.163 82.5,359C 93.8333,358.667 105.167,358.333 116.5,358C 117,357.5 117.5,357 118,356.5C 118.667,331.833 118.667,307.167 118,282.5C 117.5,282 117,281.5 116.5,281C 105.167,280.667 93.8333,280.333 82.5,280C 76.9247,274.885 77.2581,270.219 83.5,266C 97.8295,265.5 112.163,265.333 126.5,265.5 Z"/></g>
<g><path style="opacity:1" fill="#222d5b" d="M 133.5,280.5 C 170.835,280.333 208.168,280.5 245.5,281C 246,281.5 246.5,282 247,282.5C 247.667,307.167 247.667,331.833 247,356.5C 246.5,357 246,357.5 245.5,358C 208.833,358.667 172.167,358.667 135.5,358C 135,357.5 134.5,357 134,356.5C 133.5,331.169 133.333,305.836 133.5,280.5 Z"/></g>
<g><path style="opacity:1" fill="#222d5b" d="M 264.5,280.5 C 301.502,280.333 338.502,280.5 375.5,281C 376.661,306.428 376.828,331.928 376,357.5C 338.905,358.663 301.738,358.829 264.5,358C 264,357.5 263.5,357 263,356.5C 262.333,331.833 262.333,307.167 263,282.5C 263.717,281.956 264.217,281.289 264.5,280.5 Z"/></g>
<g><path style="opacity:1" fill="#d3dbf8" d="M 154.5,295.5 C 166.505,295.333 178.505,295.5 190.5,296C 198.393,300.91 198.393,305.91 190.5,311C 178.167,311.667 165.833,311.667 153.5,311C 146.712,305.333 147.046,300.166 154.5,295.5 Z"/></g>
<g><path style="opacity:1" fill="#d3dbf8" d="M 283.5,295.5 C 295.838,295.333 308.171,295.5 320.5,296C 324.861,298.226 326.361,301.726 325,306.5C 324.167,308.667 322.667,310.167 320.5,311C 308.167,311.667 295.833,311.667 283.5,311C 278.465,307.987 277.298,303.82 280,298.5C 281.145,297.364 282.312,296.364 283.5,295.5 Z"/></g>
<g><path style="opacity:1" fill="#222d5b" d="M 126.5,373.5 C 187.834,373.333 249.168,373.5 310.5,374C 311,374.5 311.5,375 312,375.5C 312.667,384.5 312.667,393.5 312,402.5C 311.5,403 311,403.5 310.5,404C 249.168,404.5 187.834,404.667 126.5,404.5C 126.5,402.167 126.5,399.833 126.5,397.5C 122.629,397.815 118.962,397.482 115.5,396.5C 121.509,396.666 127.509,396.499 133.5,396C 139.729,391.829 140.062,387.163 134.5,382C 127.842,381.5 121.175,381.334 114.5,381.5C 118.298,380.517 122.298,380.183 126.5,380.5C 126.5,378.167 126.5,375.833 126.5,373.5 Z"/></g>
<g><path style="opacity:1" fill="#d7dffb" d="M 114.5,381.5 C 121.175,381.334 127.842,381.5 134.5,382C 140.062,387.163 139.729,391.829 133.5,396C 127.509,396.499 121.509,396.666 115.5,396.5C 113.097,396.607 111.264,395.607 110,393.5C 107.008,387.712 108.508,383.712 114.5,381.5 Z"/></g>
<g><path style="opacity:1" fill="#3b4e80" d="M 93.5,450.5 C 107.167,450.5 120.833,450.5 134.5,450.5C 228.833,450.5 323.167,450.5 417.5,450.5C 411.603,456.784 404.936,462.117 397.5,466.5C 312.5,466.5 227.5,466.5 142.5,466.5C 132.833,466.5 123.167,466.5 113.5,466.5C 106.064,462.117 99.3973,456.784 93.5,450.5 Z"/></g>
<g><path style="opacity:1" fill="#0f1b42" d="M 113.5,466.5 C 123.167,466.5 132.833,466.5 142.5,466.5C 148.007,475.515 154.007,484.182 160.5,492.5C 143.409,486.127 127.742,477.461 113.5,466.5 Z"/></g>
<g><path style="opacity:0.99" fill="#212c5a" d="M 142.5,466.5 C 227.5,466.5 312.5,466.5 397.5,466.5C 361.562,492.148 321.562,507.148 277.5,511.5C 262.833,511.5 248.167,511.5 233.5,511.5C 208.221,508.844 183.888,502.51 160.5,492.5C 154.007,484.182 148.007,475.515 142.5,466.5 Z"/></g>
</svg>
